<svg aria-hidden="true" style="position: absolute; width: 0; height: 0; overflow: hidden;" version="1.1" xmlns="http://www.w3.org/2000/svg" xmlns:xlink="http://www.w3.org/1999/xlink">
<defs>
<symbol id="icon-clock" viewBox="0 0 32 32">
<path d="M16 0.382c-8.471 0-15.385 6.914-15.385 15.385s6.914 15.385 15.385 15.385c8.471 0 15.385-6.914 15.385-15.385s-6.914-15.385-15.385-15.385zM16 29.348c-7.489 0-13.582-6.093-13.582-13.582s6.093-13.582 13.582-13.582 13.582 6.093 13.582 13.582c0 7.489-6.093 13.582-13.582 13.582z"></path>
<path d="M8.351 24.317c0.498 0 0.901-0.404 0.901-0.901s-0.404-0.901-0.901-0.901c-0.498 0-0.901 0.404-0.901 0.901s0.404 0.901 0.901 0.901z"></path>
<path d="M23.649 9.019c0.498 0 0.902-0.404 0.902-0.901s-0.404-0.901-0.902-0.901c-0.498 0-0.901 0.404-0.901 0.901s0.404 0.901 0.901 0.901z"></path>
<path d="M7.714 7.48c-0.352 0.352-0.352 0.923 0 1.275s0.923 0.352 1.275 0c0.352-0.352 0.352-0.923 0-1.275s-0.923-0.352-1.275 0z"></path>
<path d="M23.012 22.778c-0.352 0.352-0.352 0.923 0 1.275s0.923 0.352 1.275 0c0.352-0.352 0.352-0.923 0-1.275s-0.923-0.352-1.275 0z"></path>
<path d="M16 7.653c0.498 0 0.901-0.404 0.901-0.901v-1.803c0-0.498-0.404-0.901-0.901-0.901s-0.901 0.404-0.901 0.901v1.803c0 0.498 0.404 0.901 0.901 0.901z"></path>
<path d="M16 23.879c-0.498 0-0.901 0.404-0.901 0.901v1.803c0 0.498 0.404 0.901 0.901 0.901s0.901-0.404 0.901-0.901v-1.803c0-0.498-0.404-0.901-0.901-0.901z"></path>
<path d="M7.887 15.766c0-0.498-0.404-0.902-0.901-0.902h-1.803c-0.498 0-0.901 0.404-0.901 0.902s0.404 0.901 0.901 0.901h1.803c0.498 0 0.901-0.404 0.901-0.901z"></path>
<path d="M24.113 15.766c0 0.498 0.404 0.901 0.901 0.901h1.803c0.498 0 0.901-0.404 0.901-0.901s-0.404-0.902-0.901-0.902h-1.803c-0.498 0-0.901 0.404-0.901 0.902z"></path>
<path d="M16.901 15.393v-5.035c0-0.498-0.404-0.901-0.901-0.901s-0.901 0.404-0.901 0.901v5.409c0 0.239 0.095 0.468 0.264 0.637l5.409 5.409c0.352 0.352 0.923 0.352 1.275 0s0.352-0.923 0-1.275l-5.145-5.145z"></path>
</symbol>
<symbol id="icon-telegram" viewBox="0 0 32 32">
<path d="M25.728 6.802c1.081 0 1.366 0.818 1.046 2.738-0.366 2.196-1.421 9.467-2.262 13.994-0.322 1.732-0.902 2.479-1.746 2.479-0.464 0-1.008-0.226-1.632-0.638-0.846-0.559-5.118-3.384-6.046-4.047-0.846-0.605-2.013-1.332-0.549-2.764 0.521-0.51 3.936-3.771 6.596-6.309 0.284-0.271 0.046-0.685-0.269-0.685-0.072 0-0.148 0.022-0.223 0.071-3.586 2.378-8.558 5.679-9.191 6.109s-1.249 0.705-2.071 0.705c-0.42 0-0.894-0.072-1.451-0.232-1.245-0.358-2.462-0.784-2.935-0.947-1.824-0.626-1.391-1.437 0.38-2.216 7.101-3.124 16.29-6.933 17.559-7.46 1.236-0.513 2.154-0.799 2.793-0.799zM25.728 4.879c-0.877 0-1.933 0.283-3.529 0.945l-0.192 0.079c-6.817 2.831-12.999 5.458-17.405 7.396-0.688 0.303-2.783 1.224-2.701 3.151 0.035 0.831 0.492 1.965 2.472 2.644l0.146 0.050c0.553 0.19 1.703 0.587 2.883 0.926 0.718 0.206 1.367 0.306 1.981 0.306 1.067 0 1.893-0.305 2.539-0.659-0.003 0.108-0.001 0.216 0.008 0.325 0.117 1.482 1.263 2.295 1.947 2.781l0.095 0.068c1.011 0.723 5.586 3.746 6.104 4.087 0.975 0.644 1.855 0.956 2.692 0.956 1.315 0 3.015-0.703 3.636-4.050 0.59-3.175 1.273-7.61 1.771-10.849 0.212-1.382 0.386-2.515 0.497-3.18 0.224-1.342 0.326-2.863-0.608-3.965-0.392-0.462-1.115-1.012-2.337-1.012z"></path>
</symbol>
<symbol id="icon-mail" viewBox="0 0 32 32">
<path d="M28.68 4.949h-25.361c-1.488 0-2.704 1.211-2.704 2.704v16.226c0 1.494 1.217 2.704 2.704 2.704h25.361c1.488 0 2.704-1.211 2.704-2.704v-16.226c0-1.494-1.217-2.704-2.704-2.704zM28.265 6.752c-0.874 0.877-11.145 11.181-11.566 11.604-0.352 0.353-1.045 0.354-1.397 0l-11.566-11.604h24.53zM2.418 23.548v-15.563l7.756 7.782-7.756 7.782zM3.735 24.781l7.712-7.737 2.577 2.586c1.056 1.060 2.895 1.059 3.951 0l2.577-2.586 7.712 7.737h-24.53zM29.582 23.548l-7.756-7.782 7.756-7.782v15.563z"></path>
</symbol>
<symbol id="icon-telephone" viewBox="0 0 32 32">
<path d="M24.933 19.442c-0.63-0.656-1.39-1.007-2.195-1.007-0.799 0-1.565 0.344-2.221 1l-2.052 2.046c-0.169-0.091-0.338-0.175-0.5-0.26-0.234-0.117-0.455-0.227-0.643-0.344-1.922-1.221-3.669-2.812-5.345-4.871-0.812-1.026-1.357-1.89-1.753-2.766 0.533-0.487 1.026-0.994 1.507-1.481 0.182-0.182 0.364-0.37 0.546-0.552 1.364-1.364 1.364-3.13 0-4.494l-1.773-1.773c-0.201-0.201-0.409-0.409-0.604-0.617-0.39-0.403-0.799-0.818-1.221-1.208-0.63-0.623-1.383-0.955-2.175-0.955s-1.559 0.331-2.208 0.955c-0.006 0.006-0.006 0.006-0.013 0.013l-2.208 2.227c-0.831 0.831-1.305 1.844-1.409 3.020-0.156 1.896 0.403 3.663 0.831 4.819 1.052 2.838 2.624 5.468 4.968 8.287 2.844 3.396 6.267 6.078 10.176 7.968 1.494 0.708 3.487 1.546 5.715 1.689 0.136 0.007 0.279 0.013 0.409 0.013 1.5 0 2.76-0.539 3.747-1.61 0.007-0.013 0.020-0.019 0.026-0.032 0.338-0.409 0.727-0.779 1.137-1.175 0.279-0.266 0.565-0.545 0.844-0.838 0.643-0.669 0.981-1.448 0.981-2.247 0-0.805-0.344-1.578-1-2.227l-3.565-3.578zM27.258 26.28c-0.007 0-0.007 0.007 0 0-0.253 0.273-0.513 0.52-0.792 0.792-0.422 0.403-0.851 0.825-1.253 1.299-0.656 0.701-1.429 1.033-2.442 1.033-0.097 0-0.201 0-0.299-0.007-1.929-0.123-3.721-0.877-5.065-1.52-3.676-1.779-6.903-4.305-9.585-7.507-2.214-2.669-3.695-5.137-4.676-7.786-0.604-1.617-0.825-2.877-0.727-4.065 0.065-0.76 0.357-1.39 0.896-1.929l2.214-2.214c0.318-0.299 0.656-0.461 0.987-0.461 0.409 0 0.74 0.247 0.948 0.455 0.006 0.006 0.013 0.013 0.019 0.019 0.396 0.37 0.773 0.753 1.169 1.162 0.201 0.208 0.409 0.416 0.617 0.63l1.773 1.773c0.688 0.688 0.688 1.325 0 2.013-0.188 0.188-0.37 0.377-0.559 0.559-0.546 0.559-1.065 1.078-1.63 1.585-0.013 0.013-0.026 0.019-0.032 0.032-0.559 0.558-0.455 1.104-0.338 1.474 0.007 0.019 0.013 0.039 0.019 0.058 0.461 1.117 1.11 2.169 2.098 3.422l0.007 0.006c1.792 2.208 3.682 3.929 5.767 5.247 0.266 0.169 0.539 0.305 0.799 0.435 0.234 0.117 0.455 0.227 0.643 0.344 0.026 0.013 0.052 0.032 0.078 0.045 0.221 0.11 0.429 0.162 0.643 0.162 0.539 0 0.877-0.338 0.987-0.448l2.221-2.221c0.221-0.221 0.572-0.487 0.981-0.487 0.403 0 0.734 0.253 0.935 0.474 0.006 0.007 0.006 0.007 0.013 0.013l3.578 3.578c0.669 0.662 0.669 1.344 0.007 2.033z"></path>
<path d="M17.244 7.701c1.702 0.286 3.247 1.091 4.481 2.325s2.033 2.779 2.325 4.481c0.072 0.429 0.442 0.727 0.864 0.727 0.052 0 0.097-0.007 0.149-0.013 0.481-0.078 0.799-0.533 0.721-1.013-0.351-2.059-1.325-3.935-2.812-5.423s-3.364-2.461-5.423-2.812c-0.48-0.078-0.929 0.24-1.013 0.714s0.227 0.935 0.708 1.013z"></path>
<path d="M31.35 13.955c-0.578-3.39-2.175-6.475-4.63-8.929s-5.539-4.052-8.929-4.63c-0.474-0.084-0.922 0.24-1.007 0.714-0.078 0.481 0.24 0.929 0.721 1.013 3.026 0.513 5.786 1.948 7.981 4.137 2.195 2.195 3.624 4.955 4.137 7.981 0.071 0.429 0.442 0.727 0.864 0.727 0.052 0 0.097-0.007 0.149-0.013 0.474-0.072 0.799-0.526 0.714-1z"></path>
</symbol>
<symbol id="icon-arrow-right" viewBox="0 0 32 32">
<path fill="none" stroke="#000" style="stroke: var(--color1, #000)" stroke-linejoin="miter" stroke-linecap="butt" stroke-miterlimit="4" stroke-width="1.0667" d="M31.467 16c0 8.542-6.925 15.467-15.467 15.467s-15.467-6.925-15.467-15.467c0-8.542 6.925-15.467 15.467-15.467s15.467 6.925 15.467 15.467z"></path>
<path d="M24.208 16.733c0.208-0.208 0.208-0.546 0-0.754l-3.394-3.394c-0.208-0.208-0.546-0.208-0.754 0s-0.208 0.546 0 0.754l3.017 3.017-3.017 3.017c-0.208 0.208-0.208 0.546 0 0.754s0.546 0.208 0.754 0l3.394-3.394zM9.236 16.889h14.595v-1.067h-14.595v1.067z"></path>
</symbol>
<symbol id="icon-arrow-left" viewBox="0 0 32 32">
<path fill="none" stroke="#000" style="stroke: var(--color1, #000)" stroke-linejoin="miter" stroke-linecap="butt" stroke-miterlimit="4" stroke-width="1.0667" d="M31.467 16c0 8.542-6.925 15.467-15.467 15.467s-15.467-6.925-15.467-15.467c0-8.542 6.925-15.467 15.467-15.467s15.467 6.925 15.467 15.467z"></path>
<path d="M8.156 15.978c-0.208 0.208-0.208 0.546 0 0.754l3.394 3.394c0.208 0.208 0.546 0.208 0.754 0s0.208-0.546 0-0.754l-3.017-3.017 3.017-3.017c0.208-0.208 0.208-0.546 0-0.754s-0.546-0.208-0.754 0l-3.394 3.394zM23.128 15.822h-14.595v1.067h14.595v-1.067z"></path>
</symbol>
<symbol id="icon-done" viewBox="0 0 32 32">
<path fill="#efd40f" style="fill: var(--color2, #efd40f)" d="M15.046 1.322c-8.127 0-14.74 6.612-14.74 14.74s6.614 14.74 14.74 14.74c8.126 0 14.74-6.612 14.74-14.74 0-2.361-0.576-4.692-1.654-6.774l3.030-3.032c0.199-0.199 0.199-0.52 0-0.719l-2.033-2.033c-0.199-0.199-0.52-0.199-0.719 0l-2.575 2.575c-0.024-0.064-0.060-0.123-0.107-0.175-2.811-2.954-6.606-4.582-10.682-4.582zM15.046 2.339c3.796 0 7.328 1.515 9.943 4.267 0.058 0.060 0.125 0.097 0.197 0.123l-1.507 1.507c-0.024-0.060-0.056-0.117-0.103-0.169-0.085-0.091-0.173-0.181-0.262-0.27-0.336-0.336-0.693-0.651-1.064-0.943-0.222-0.173-0.542-0.135-0.715 0.085-0.173 0.222-0.135 0.54 0.087 0.713 0.34 0.266 0.665 0.558 0.971 0.864 0.081 0.081 0.163 0.165 0.24 0.248 0.056 0.058 0.123 0.097 0.195 0.125l-7.982 7.98-5.232-5.232c-0.199-0.199-0.52-0.199-0.719 0l-2.033 2.033c-0.199 0.199-0.199 0.52 0 0.719l7.624 7.624c0.099 0.099 0.228 0.149 0.359 0.149s0.26-0.050 0.359-0.149l9.649-9.649c0.034 0.091 0.066 0.183 0.097 0.276 0.052 0.151 0.099 0.304 0.143 0.459 0.018 0.066 0.042 0.131 0.060 0.197 0.060 0.23 0.113 0.463 0.159 0.695 0.008 0.040 0.014 0.079 0.022 0.119 0.417 2.279 0.073 4.644-0.949 6.711-0.052 0.103-0.103 0.209-0.159 0.312-0.083 0.157-0.173 0.314-0.264 0.467-0.085 0.141-0.175 0.276-0.266 0.411-0.079 0.117-0.155 0.238-0.24 0.353-0.175 0.242-0.359 0.473-0.554 0.697-0.069 0.079-0.145 0.155-0.216 0.232-3.026 3.276-7.92 4.432-12.209 2.51-1.281-0.574-2.385-1.376-3.304-2.329-0.127-0.131-0.246-0.268-0.365-0.405-0.121-0.139-0.242-0.278-0.355-0.421-0.087-0.111-0.167-0.226-0.248-0.34-0.131-0.179-0.258-0.357-0.375-0.544-0.054-0.083-0.101-0.171-0.151-0.256-0.129-0.216-0.254-0.435-0.367-0.661-0.034-0.069-0.064-0.141-0.097-0.21-0.113-0.238-0.222-0.48-0.318-0.727-0.032-0.081-0.058-0.167-0.087-0.248-0.081-0.232-0.163-0.467-0.23-0.705-0.036-0.127-0.062-0.258-0.093-0.387-0.048-0.193-0.093-0.383-0.131-0.578-0.034-0.193-0.058-0.385-0.081-0.578-0.018-0.135-0.040-0.27-0.052-0.405-0.022-0.242-0.030-0.486-0.034-0.731-0.004-0.091-0.008-0.181-0.008-0.27 0.002-0.264 0.018-0.526 0.038-0.788 0.006-0.079 0.008-0.157 0.016-0.236 0.026-0.248 0.064-0.498 0.107-0.747 0.016-0.097 0.032-0.197 0.052-0.294 0.042-0.216 0.099-0.427 0.155-0.641 0.038-0.135 0.071-0.27 0.113-0.405 0.054-0.177 0.117-0.349 0.181-0.522 0.064-0.169 0.127-0.339 0.199-0.506 0.075-0.179 0.159-0.353 0.244-0.528 0.056-0.113 0.111-0.23 0.171-0.342 0.113-0.212 0.238-0.419 0.369-0.623 0.044-0.071 0.083-0.145 0.129-0.214 0.181-0.272 0.375-0.536 0.584-0.792 0.050-0.063 0.105-0.121 0.157-0.183 0.165-0.195 0.336-0.385 0.514-0.572 0.117-0.117 0.234-0.234 0.355-0.347 0.052-0.048 0.103-0.099 0.157-0.147 0.185-0.165 0.375-0.324 0.57-0.476 0.066-0.052 0.135-0.099 0.203-0.149 0.133-0.099 0.27-0.197 0.407-0.288 0.093-0.064 0.187-0.125 0.282-0.183 0.117-0.073 0.236-0.143 0.355-0.212 0.209-0.119 0.421-0.232 0.637-0.336 0.079-0.040 0.157-0.081 0.236-0.117 0.151-0.069 0.302-0.131 0.455-0.193 0.064-0.026 0.127-0.050 0.193-0.075 0.165-0.062 0.332-0.125 0.5-0.179 0.004-0.002 0.006-0.002 0.010-0.002 0.391-0.125 0.788-0.23 1.191-0.312l0.016-0.002c0.189-0.038 0.379-0.069 0.57-0.095 0.040-0.006 0.079-0.012 0.119-0.016 0.536-0.071 1.080-0.099 1.624-0.087 0.109 0.002 0.216 0.004 0.326 0.010 0.133 0.008 0.266 0.016 0.401 0.028 0.181 0.016 0.363 0.040 0.548 0.066 0.060 0.008 0.121 0.014 0.181 0.024 0.278 0.044 0.538-0.145 0.582-0.421v-0.002c0.046-0.278-0.143-0.538-0.421-0.584-0.064-0.010-0.127-0.012-0.191-0.022-0.203-0.030-0.407-0.054-0.612-0.073-0.141-0.012-0.28-0.020-0.421-0.028-0.131-0.008-0.26-0.012-0.389-0.014-0.574-0.012-1.142 0.020-1.702 0.089-0.075 0.010-0.149 0.020-0.222 0.030-0.187 0.028-0.371 0.058-0.556 0.095-0.058 0.010-0.113 0.024-0.171 0.036-0.342 0.073-0.681 0.159-1.013 0.262-0.073 0.022-0.145 0.042-0.218 0.066-0.153 0.052-0.304 0.107-0.457 0.163-0.113 0.044-0.226 0.087-0.338 0.133-0.131 0.054-0.264 0.107-0.393 0.167-0.226 0.103-0.453 0.212-0.673 0.33-0.073 0.040-0.145 0.083-0.218 0.123-0.179 0.101-0.355 0.205-0.528 0.314-0.075 0.048-0.151 0.097-0.226 0.147-0.191 0.127-0.377 0.26-0.56 0.397-0.042 0.032-0.085 0.062-0.127 0.093-0.228 0.177-0.451 0.363-0.667 0.558-0.036 0.032-0.068 0.064-0.103 0.095-0.113 0.105-0.228 0.21-0.34 0.32-0.040 0.040-0.073 0.083-0.113 0.125-0.179 0.185-0.351 0.379-0.52 0.578-0.069 0.079-0.143 0.159-0.208 0.24-0.22 0.274-0.431 0.558-0.627 0.852-0.058 0.089-0.107 0.179-0.161 0.268-0.135 0.214-0.266 0.429-0.387 0.653-0.067 0.127-0.129 0.256-0.193 0.385-0.062 0.127-0.131 0.25-0.191 0.381-0.046 0.103-0.085 0.207-0.127 0.31-0.018 0.040-0.036 0.079-0.052 0.121-0.133 0.332-0.25 0.667-0.351 1.005-0.004 0.010-0.006 0.020-0.010 0.030-0.435 1.469-0.566 2.97-0.425 4.434 0.002 0.004 0.002 0.008 0.004 0.012 0.034 0.351 0.083 0.699 0.149 1.042 0.008 0.048 0.020 0.095 0.030 0.143 0.060 0.304 0.133 0.602 0.218 0.899 0.024 0.087 0.052 0.173 0.077 0.258 0.081 0.262 0.171 0.52 0.27 0.774 0.042 0.109 0.085 0.216 0.133 0.324 0.099 0.238 0.208 0.473 0.324 0.703 0.056 0.109 0.111 0.216 0.171 0.322 0.127 0.238 0.266 0.469 0.409 0.697 0.056 0.087 0.111 0.173 0.169 0.256 0.171 0.254 0.351 0.498 0.542 0.739 0.042 0.052 0.081 0.105 0.125 0.157 0.222 0.27 0.459 0.532 0.707 0.782 0.014 0.014 0.026 0.030 0.038 0.044 0.004 0.002 0.008 0.002 0.010 0.004 0.977 0.977 2.14 1.797 3.475 2.394 1.549 0.695 3.169 1.024 4.765 1.024 3.087 0 6.082-1.231 8.279-3.421 0.002-0.002 0.004-0.002 0.004-0.004 0.042-0.040 0.075-0.083 0.115-0.125 0.163-0.165 0.324-0.335 0.477-0.514 0.036-0.040 0.066-0.083 0.099-0.123 0.159-0.189 0.312-0.381 0.459-0.58 0.016-0.024 0.032-0.046 0.048-0.070 0.461-0.635 0.87-1.324 1.203-2.071 0.981-2.186 1.253-4.604 0.822-6.921-0.008-0.046-0.016-0.089-0.024-0.133-0.052-0.254-0.107-0.508-0.175-0.76-0.018-0.071-0.044-0.141-0.064-0.214-0.050-0.169-0.101-0.34-0.157-0.508-0.038-0.107-0.075-0.214-0.115-0.322-0.052-0.137-0.107-0.272-0.163-0.407l1.541-1.539c0.907 1.866 1.39 3.931 1.39 6.022 0 7.567-6.157 13.724-13.724 13.724s-13.724-6.157-13.724-13.724c0-7.567 6.157-13.724 13.724-13.724zM28.769 4.582l1.314 1.314-15.038 15.038-6.906-6.906 1.314-1.314 5.232 5.232c0.199 0.199 0.52 0.199 0.719 0l13.364-13.364zM18.937 5.077c-0.197 0.008-0.379 0.133-0.453 0.33-0.099 0.264 0.034 0.556 0.298 0.655 0.363 0.135 0.721 0.292 1.068 0.465 0.073 0.038 0.151 0.056 0.228 0.056 0.185 0 0.363-0.101 0.455-0.28 0.125-0.25 0.024-0.556-0.226-0.683-0.377-0.191-0.772-0.361-1.169-0.51-0.066-0.024-0.133-0.034-0.201-0.032z"></path>
</symbol>
</defs>
</svg>
